<?xml version="1.0" encoding="UTF-8"?>
<svg width="96" height="96" viewBox="0 0 96 96" fill="none" xmlns="http://www.w3.org/2000/svg">
  <defs>
    <linearGradient id="bg" x1="10" y1="8" x2="86" y2="90" gradientUnits="userSpaceOnUse">
      <stop offset="0" stop-color="#79C9A3"/>
      <stop offset="1" stop-color="#3F9B73"/>
    </linearGradient>
    <radialGradient id="shine" cx="0" cy="0" r="1" gradientUnits="userSpaceOnUse" gradientTransform="translate(48 13) rotate(90) scale(22 46)">
      <stop stop-color="white" stop-opacity="0.32"/>
      <stop offset="1" stop-color="white" stop-opacity="0"/>
    </radialGradient>
    <filter id="drop" x="0" y="0" width="96" height="96" filterUnits="userSpaceOnUse" color-interpolation-filters="sRGB">
      <feDropShadow dx="0" dy="7" stdDeviation="4" flood-color="#0A1612" flood-opacity="0.34"/>
    </filter>
  </defs>

  <g filter="url(#drop)">
    <rect x="4" y="4" width="88" height="88" rx="24" fill="url(#bg)"/>
    <rect x="4.5" y="4.5" width="87" height="87" rx="23.5" stroke="white" stroke-opacity="0.34"/>
    <rect x="4" y="4" width="88" height="88" rx="24" fill="url(#shine)"/>
    <ellipse cx="48" cy="86" rx="24" ry="6" fill="#0D2419" fill-opacity="0.14"/>
    <g transform="translate(19 19) scale(2.42)" fill="none" stroke="white" stroke-width="2.7" stroke-linecap="round" stroke-linejoin="round">
      <path d="M2.97 12.92A2 2 0 0 0 2 14.63v3.24a2 2 0 0 0 .97 1.71l3 1.8a2 2 0 0 0 2.06 0L12 19v-5.5l-5-3-4.03 2.42Z"></path><path d="m7 16.5-4.74-2.85"></path><path d="m7 16.5 5-3"></path><path d="M7 16.5v5.17"></path><path d="M12 13.5V19l3.97 2.38a2 2 0 0 0 2.06 0l3-1.8a2 2 0 0 0 .97-1.71v-3.24a2 2 0 0 0-.97-1.71L17 10.5l-5 3Z"></path><path d="m17 16.5-5-3"></path><path d="m17 16.5 4.74-2.85"></path><path d="M17 16.5v5.17"></path><path d="M7.97 4.42A2 2 0 0 0 7 6.13v4.37l5 3 5-3V6.13a2 2 0 0 0-.97-1.71l-3-1.8a2 2 0 0 0-2.06 0l-3 1.8Z"></path><path d="M12 8 7.26 5.15"></path><path d="m12 8 4.74-2.85"></path><path d="M12 13.5V8"></path>
    </g>
  </g>
</svg>
