<?xml version="1.0" encoding="UTF-8"?>
<svg width="96" height="96" viewBox="0 0 96 96" fill="none" xmlns="http://www.w3.org/2000/svg">
  <defs>
    <linearGradient id="bg" x1="10" y1="8" x2="86" y2="90" gradientUnits="userSpaceOnUse">
      <stop offset="0" stop-color="#CFAFC9"/>
      <stop offset="1" stop-color="#9A6FA1"/>
    </linearGradient>
    <radialGradient id="shine" cx="0" cy="0" r="1" gradientUnits="userSpaceOnUse" gradientTransform="translate(48 13) rotate(90) scale(22 46)">
      <stop stop-color="white" stop-opacity="0.32"/>
      <stop offset="1" stop-color="white" stop-opacity="0"/>
    </radialGradient>
    <filter id="drop" x="0" y="0" width="96" height="96" filterUnits="userSpaceOnUse" color-interpolation-filters="sRGB">
      <feDropShadow dx="0" dy="7" stdDeviation="4" flood-color="#0A1612" flood-opacity="0.34"/>
    </filter>
  </defs>

  <g filter="url(#drop)">
    <rect x="4" y="4" width="88" height="88" rx="24" fill="url(#bg)"/>
    <rect x="4.5" y="4.5" width="87" height="87" rx="23.5" stroke="white" stroke-opacity="0.34"/>
    <rect x="4" y="4" width="88" height="88" rx="24" fill="url(#shine)"/>
    <ellipse cx="48" cy="86" rx="24" ry="6" fill="#0D2419" fill-opacity="0.14"/>
    <g transform="translate(19 19) scale(2.42)" fill="none" stroke="white" stroke-width="2.7" stroke-linecap="round" stroke-linejoin="round">
      <path d="M18 21V10a1 1 0 0 0-1-1H7a1 1 0 0 0-1 1v11"></path><path d="M22 19a2 2 0 0 1-2 2H4a2 2 0 0 1-2-2V8a2 2 0 0 1 1.132-1.803l7.95-3.974a2 2 0 0 1 1.837 0l7.948 3.974A2 2 0 0 1 22 8z"></path><path d="M6 13h12"></path><path d="M6 17h12"></path>
    </g>
  </g>
</svg>
