<?xml version="1.0" encoding="UTF-8"?>
<svg width="96" height="96" viewBox="0 0 96 96" fill="none" xmlns="http://www.w3.org/2000/svg">
  <g transform="translate(21 21) scale(2.25)" fill="none" stroke="currentColor" stroke-width="2.7" stroke-linecap="round" stroke-linejoin="round">
    <path d="M6 22a2 2 0 0 1-2-2V4a2 2 0 0 1 2-2h8a2.4 2.4 0 0 1 1.704.706l3.588 3.588A2.4 2.4 0 0 1 20 8v12a2 2 0 0 1-2 2z"></path><path d="M14 2v5a1 1 0 0 0 1 1h5"></path><path d="M8 18v-1"></path><path d="M12 18v-6"></path><path d="M16 18v-3"></path>
  </g>
</svg>
