<?xml version="1.0" encoding="UTF-8"?>
<svg width="96" height="96" viewBox="0 0 96 96" fill="none" xmlns="http://www.w3.org/2000/svg">
  <g transform="translate(21 21) scale(2.25)" fill="none" stroke="currentColor" stroke-width="2.7" stroke-linecap="round" stroke-linejoin="round">
    <path d="M18 21V10a1 1 0 0 0-1-1H7a1 1 0 0 0-1 1v11"></path><path d="M22 19a2 2 0 0 1-2 2H4a2 2 0 0 1-2-2V8a2 2 0 0 1 1.132-1.803l7.95-3.974a2 2 0 0 1 1.837 0l7.948 3.974A2 2 0 0 1 22 8z"></path><path d="M6 13h12"></path><path d="M6 17h12"></path>
  </g>
</svg>
